<svg xmlns="http://www.w3.org/2000/svg" xmlns:xlink="http://www.w3.org/1999/xlink" zoomAndPan="magnify" viewBox="0 0 750 374.999991" preserveAspectRatio="xMidYMid meet" version="1.0"><defs><g/><clipPath id="a671155889"><path d="M 527 103 L 604 103 L 604 349 L 527 349 Z M 527 103 " clip-rule="nonzero"/></clipPath><clipPath id="3931bfb120"><path d="M 483.882812 140.09375 L 589.917969 103.824219 L 661.527344 313.167969 L 555.496094 349.4375 Z M 483.882812 140.09375 " clip-rule="nonzero"/></clipPath><clipPath id="2fb1d872dc"><path d="M 483.882812 140.09375 L 589.917969 103.824219 L 661.527344 313.167969 L 555.496094 349.4375 Z M 483.882812 140.09375 " clip-rule="nonzero"/></clipPath><clipPath id="80fbe5f041"><path d="M 527 118 L 569 118 L 569 349 L 527 349 Z M 527 118 " clip-rule="nonzero"/></clipPath><clipPath id="73a91a08f2"><path d="M 483.882812 140.09375 L 589.917969 103.824219 L 661.527344 313.167969 L 555.496094 349.4375 Z M 483.882812 140.09375 " clip-rule="nonzero"/></clipPath><clipPath id="1c96688cd0"><path d="M 483.882812 140.09375 L 589.917969 103.824219 L 661.527344 313.167969 L 555.496094 349.4375 Z M 483.882812 140.09375 " clip-rule="nonzero"/></clipPath><clipPath id="58e2f9796e"><path d="M 529.730469 46.636719 L 586.816406 46.636719 L 586.816406 103.722656 L 529.730469 103.722656 Z M 529.730469 46.636719 " clip-rule="nonzero"/></clipPath><clipPath id="9428872e19"><path d="M 558.273438 46.636719 C 542.507812 46.636719 529.730469 59.414062 529.730469 75.179688 C 529.730469 90.941406 542.507812 103.722656 558.273438 103.722656 C 574.035156 103.722656 586.816406 90.941406 586.816406 75.179688 C 586.816406 59.414062 574.035156 46.636719 558.273438 46.636719 Z M 558.273438 46.636719 " clip-rule="nonzero"/></clipPath></defs><g fill="#011627" fill-opacity="1"><g transform="translate(12.448, 289.506812)"><g><path d="M 183.6875 -157.53125 L 118.578125 0 L 61.609375 0 L -3.203125 -157.53125 L 53.484375 -157.53125 L 91.265625 -61.328125 L 131.078125 -157.53125 Z M 183.6875 -157.53125 "/></g></g></g><g fill="#011627" fill-opacity="1"><g transform="translate(162.985217, 289.506812)"><g><path d="M 120.328125 -160.140625 C 139.898438 -160.140625 155.640625 -154.328125 167.546875 -142.703125 C 179.460938 -131.078125 185.421875 -113.539062 185.421875 -90.09375 L 185.421875 0 L 130.203125 0 L 130.203125 -81.09375 C 130.203125 -102.59375 121.582031 -113.34375 104.34375 -113.34375 C 94.84375 -113.34375 87.234375 -110.242188 81.515625 -104.046875 C 75.804688 -97.847656 72.953125 -88.546875 72.953125 -76.140625 L 72.953125 0 L 17.734375 0 L 17.734375 -157.53125 L 70.328125 -157.53125 L 70.328125 -140.375 C 76.535156 -146.769531 83.898438 -151.660156 92.421875 -155.046875 C 100.953125 -158.441406 110.253906 -160.140625 120.328125 -160.140625 Z M 120.328125 -160.140625 "/></g></g></g><g fill="#011627" fill-opacity="1"><g transform="translate(335.609617, 289.506812)"><g><path d="M 96.78125 2.609375 C 79.925781 2.609375 64.71875 -0.875 51.15625 -7.84375 C 37.59375 -14.820312 26.984375 -24.507812 19.328125 -36.90625 C 11.671875 -49.3125 7.84375 -63.359375 7.84375 -79.046875 C 7.84375 -94.554688 11.671875 -108.507812 19.328125 -120.90625 C 26.984375 -133.300781 37.539062 -142.9375 51 -149.8125 C 64.46875 -156.695312 79.726562 -160.140625 96.78125 -160.140625 C 113.832031 -160.140625 129.140625 -156.695312 142.703125 -149.8125 C 156.265625 -142.9375 166.820312 -133.347656 174.375 -121.046875 C 181.9375 -108.742188 185.71875 -94.742188 185.71875 -79.046875 C 185.71875 -63.359375 181.9375 -49.3125 174.375 -36.90625 C 166.820312 -24.507812 156.265625 -14.820312 142.703125 -7.84375 C 129.140625 -0.875 113.832031 2.609375 96.78125 2.609375 Z M 96.78125 -41.265625 C 106.46875 -41.265625 114.410156 -44.609375 120.609375 -51.296875 C 126.816406 -57.984375 129.921875 -67.234375 129.921875 -79.046875 C 129.921875 -90.679688 126.816406 -99.789062 120.609375 -106.375 C 114.410156 -112.957031 106.46875 -116.25 96.78125 -116.25 C 87.09375 -116.25 79.148438 -112.957031 72.953125 -106.375 C 66.753906 -99.789062 63.65625 -90.679688 63.65625 -79.046875 C 63.65625 -67.234375 66.753906 -57.984375 72.953125 -51.296875 C 79.148438 -44.609375 87.09375 -41.265625 96.78125 -41.265625 Z M 96.78125 -41.265625 "/></g></g></g><g fill="#011627" fill-opacity="1"><g transform="translate(499.539607, 289.506812)"><g/></g></g><g fill="#011627" fill-opacity="1"><g transform="translate(554.462521, 289.506812)"><g/></g></g><g fill="#011627" fill-opacity="1"><g transform="translate(609.403462, 289.506812)"><g><path d="M 126.421875 -6.390625 C 121.773438 -3.484375 116.109375 -1.257812 109.421875 0.28125 C 102.742188 1.832031 95.625 2.609375 88.0625 2.609375 C 67.519531 2.609375 51.726562 -2.425781 40.6875 -12.5 C 29.644531 -22.570312 24.125 -37.585938 24.125 -57.546875 L 24.125 -110.4375 L 1.15625 -110.4375 L 1.15625 -151.71875 L 24.125 -151.71875 L 24.125 -192.6875 L 79.34375 -192.6875 L 79.34375 -151.71875 L 115.390625 -151.71875 L 115.390625 -110.4375 L 79.34375 -110.4375 L 79.34375 -58.125 C 79.34375 -52.507812 80.84375 -48.101562 83.84375 -44.90625 C 86.851562 -41.707031 90.875 -40.109375 95.90625 -40.109375 C 102.300781 -40.109375 107.921875 -41.753906 112.765625 -45.046875 Z M 126.421875 -6.390625 "/></g></g></g><g clip-path="url(#a671155889)"><g clip-path="url(#3931bfb120)"><g clip-path="url(#2fb1d872dc)"><path fill="#011627" d="M 536.597656 122.0625 L 590.1875 103.730469 L 572.320312 190.285156 L 603.734375 179.539062 L 555.367188 348.914062 L 561.570312 228.257812 L 527.964844 241.640625 Z M 536.597656 122.0625 " fill-opacity="1" fill-rule="nonzero"/></g></g></g><g clip-path="url(#80fbe5f041)"><g clip-path="url(#73a91a08f2)"><g clip-path="url(#1c96688cd0)"><path fill="#011627" d="M 536.597656 122.0625 L 545.835938 118.902344 L 527.964844 241.640625 Z M 555.367188 348.914062 L 568.039062 226.042969 L 561.570312 228.257812 Z M 555.367188 348.914062 " fill-opacity="1" fill-rule="nonzero"/></g></g></g><g clip-path="url(#58e2f9796e)"><g clip-path="url(#9428872e19)"><path fill="#2EC4B6" d="M 529.730469 46.636719 L 586.816406 46.636719 L 586.816406 103.722656 L 529.730469 103.722656 Z M 529.730469 46.636719 " fill-opacity="1" fill-rule="nonzero"/></g></g></svg>